<svg xmlns="http://www.w3.org/2000/svg" viewBox="0 0 1080 1080" role="img" aria-labelledby="title desc"><title id="title">Field Notes, Find Your Form</title><desc id="desc">Original square editorial social artwork with deep green organic forms and cream typography.</desc><rect width="1080" height="1080" fill="#edeadb"/><rect x="40" y="40" width="1000" height="1000" fill="none" stroke="#304d3f" stroke-width="3"/><text x="78" y="114" fill="#304d3f" font-family="Arial,sans-serif" font-size="24" font-weight="700" letter-spacing="6">FIELD NOTES</text><text x="1002" y="113" fill="#304d3f" text-anchor="end" font-family="Arial,sans-serif" font-size="20" font-weight="700" letter-spacing="3">VOLUME 01 / FORM</text><path d="M641 137c194-28 350 82 370 258 21 185-145 302-282 343-157 47-246 118-327 218-117 143-352 46-342-154 7-130 93-188 176-259 98-83 104-137 132-240 32-116 155-149 273-166z" fill="#304d3f"/><path d="M554 246c176-67 355-9 376 116 25 148-144 210-293 239-132 26-213 99-248 188-26 66-122 66-155 1-62-121 28-248 117-326 99-87 98-177 203-218z" fill="none" stroke="#d4e3b7" stroke-width="3"/><path d="M659 367c131-91 267-29 254 71-11 91-101 122-178 144-107 30-174 74-186 176" fill="none" stroke="#d4e3b7" stroke-width="3"/><circle cx="847" cy="806" r="103" fill="#c6d58e"/><circle cx="847" cy="806" r="55" fill="#304d3f"/><path d="M847 764v85m-42-43h84" stroke="#c6d58e" stroke-width="8"/><text x="78" y="425" fill="#304d3f" font-family="Georgia,serif" font-size="96" font-style="italic" letter-spacing="-7">Find your</text><text x="73" y="538" fill="#edeadb" font-family="Arial Black,Arial,sans-serif" font-size="138" font-weight="900" letter-spacing="-13">FORM.</text><text x="78" y="904" fill="#304d3f" font-family="Arial,sans-serif" font-size="26" font-weight="700" letter-spacing="3">SPACE TO THINK. ROOM TO GROW.</text><path d="M78 940h924" stroke="#304d3f" stroke-width="3"/><text x="78" y="994" fill="#304d3f" font-family="Arial,sans-serif" font-size="20" font-weight="700" letter-spacing="4">EDITORIAL DESIGN STUDY</text><text x="1002" y="994" fill="#304d3f" text-anchor="end" font-family="Arial,sans-serif" font-size="20" font-weight="700">AF® / 2026</text></svg>
